<?xml version="1.0" encoding="UTF-8" standalone="no"?>
<!DOCTYPE svg PUBLIC "-//W3C//DTD SVG 1.1//EN" "http://www.w3.org/Graphics/SVG/1.1/DTD/svg11.dtd">
<svg width="566.93" height="566.93" viewBox="0.00 0.00 2835.00 2835.00" xmlns="http://www.w3.org/2000/svg" xmlns:xlink="http://www.w3.org/1999/xlink">
<g stroke-linecap="round" id="圖層_2_2_2">
<path d="M1412.57,72.27 C1428.41,72.55 1460.20,73.45 1476.14,74.07 C1492.19,75.04 1524.22,77.30 1540.19,78.60 C1556.00,80.23 1587.52,83.74 1603.17,85.99 C1618.86,88.51 1650.33,93.91 1666.09,96.78 C1681.84,100.00 1713.16,106.75 1728.73,110.28 C1744.10,114.11 1774.69,122.31 1789.92,126.67 C1805.16,131.40 1835.66,141.22 1850.92,146.31 C1866.00,151.70 1895.95,162.75 1910.80,168.42 C1925.48,174.30 1954.53,187.02 1969.04,193.52 C1983.52,200.37 2012.39,214.42 2026.77,221.61 C2040.89,229.04 2068.87,244.16 2082.72,251.84 C2096.30,260.00 2123.38,276.67 2136.88,285.18 C2150.30,294.04 2176.89,312.02 2190.07,321.13 C2202.96,330.45 2228.50,349.24 2240.92,359.01 C2253.26,369.05 2277.81,389.45 2290.02,399.82 C2302.05,410.49 2325.80,431.99 2337.52,442.83 C2348.91,453.83 2371.31,476.23 2382.32,487.62 C2393.15,499.34 2414.66,523.09 2425.32,535.13 C2435.69,547.34 2456.10,571.89 2466.13,584.22 C2475.90,596.65 2494.70,622.19 2504.02,635.07 C2513.13,648.25 2531.10,674.85 2539.97,688.27 C2548.48,701.77 2565.15,728.84 2573.31,742.42 C2580.99,756.28 2596.10,784.25 2603.54,798.37 C2610.72,812.76 2624.77,841.62 2631.63,856.11 C2638.13,870.62 2650.85,899.66 2656.72,914.34 C2662.39,929.20 2673.45,959.14 2678.84,974.23 C2683.93,989.48 2693.74,1019.98 2698.47,1035.22 C2702.84,1050.45 2711.04,1081.05 2714.87,1096.42 C2718.39,1111.98 2725.14,1143.30 2728.36,1159.06 C2731.24,1174.82 2736.64,1206.28 2739.16,1221.98 C2741.41,1237.63 2744.91,1269.14 2746.54,1284.96 C2747.84,1300.93 2750.11,1332.95 2751.08,1349.00 C2751.70,1364.95 2752.60,1396.73 2752.87,1412.57 C2752.60,1428.41 2751.70,1460.20 2751.08,1476.14 C2750.11,1492.19 2747.84,1524.22 2746.54,1540.19 C2744.91,1556.00 2741.41,1587.52 2739.16,1603.17 C2736.64,1618.86 2731.24,1650.33 2728.36,1666.09 C2725.14,1681.84 2718.39,1713.16 2714.87,1728.73 C2711.04,1744.10 2702.84,1774.69 2698.47,1789.92 C2693.74,1805.16 2683.93,1835.66 2678.84,1850.92 C2673.45,1866.00 2662.39,1895.95 2656.72,1910.80 C2650.85,1925.48 2638.13,1954.53 2631.63,1969.04 C2624.77,1983.52 2610.72,2012.39 2603.54,2026.77 C2596.10,2040.89 2580.99,2068.87 2573.31,2082.72 C2565.15,2096.30 2548.48,2123.38 2539.97,2136.88 C2531.10,2150.30 2513.13,2176.89 2504.02,2190.07 C2494.70,2202.96 2475.90,2228.50 2466.13,2240.92 C2456.10,2253.26 2435.69,2277.81 2425.32,2290.02 C2414.66,2302.05 2393.15,2325.80 2382.32,2337.52 C2371.31,2348.91 2348.91,2371.31 2337.52,2382.32 C2325.80,2393.15 2302.05,2414.66 2290.02,2425.32 C2277.81,2435.69 2253.26,2456.10 2240.92,2466.13 C2228.50,2475.90 2202.96,2494.70 2190.07,2504.02 C2176.89,2513.13 2150.30,2531.10 2136.88,2539.97 C2123.38,2548.48 2096.30,2565.15 2082.72,2573.31 C2068.87,2580.99 2040.89,2596.10 2026.77,2603.54 C2012.39,2610.72 1983.52,2624.77 1969.04,2631.63 C1954.53,2638.13 1925.48,2650.85 1910.80,2656.72 C1895.95,2662.39 1866.00,2673.45 1850.92,2678.84 C1835.66,2683.93 1805.16,2693.74 1789.92,2698.47 C1774.69,2702.84 1744.10,2711.04 1728.73,2714.87 C1713.16,2718.39 1681.84,2725.14 1666.09,2728.36 C1650.33,2731.24 1618.86,2736.64 1603.17,2739.16 C1587.52,2741.41 1556.00,2744.91 1540.19,2746.54 C1524.22,2747.84 1492.19,2750.11 1476.14,2751.08 C1460.20,2751.70 1428.41,2752.60 1412.57,2752.87 C1396.73,2752.60 1364.95,2751.70 1349.00,2751.08 C1332.95,2750.11 1300.93,2747.84 1284.96,2746.54 C1269.14,2744.91 1237.63,2741.41 1221.98,2739.16 C1206.28,2736.64 1174.82,2731.24 1159.06,2728.36 C1143.30,2725.14 1111.98,2718.39 1096.42,2714.87 C1081.05,2711.04 1050.45,2702.84 1035.22,2698.47 C1019.98,2693.74 989.48,2683.93 974.23,2678.84 C959.14,2673.45 929.20,2662.39 914.34,2656.72 C899.66,2650.85 870.62,2638.13 856.11,2631.63 C841.62,2624.77 812.76,2610.72 798.37,2603.54 C784.25,2596.10 756.28,2580.99 742.42,2573.31 C728.84,2565.15 701.77,2548.48 688.27,2539.97 C674.85,2531.10 648.25,2513.13 635.07,2504.02 C622.19,2494.70 596.65,2475.90 584.22,2466.13 C571.89,2456.10 547.34,2435.69 535.13,2425.32 C523.09,2414.66 499.34,2393.15 487.62,2382.32 C476.23,2371.31 453.83,2348.91 442.83,2337.52 C431.99,2325.80 410.49,2302.05 399.82,2290.02 C389.45,2277.81 369.05,2253.26 359.01,2240.92 C349.24,2228.50 330.45,2202.96 321.13,2190.07 C312.02,2176.89 294.04,2150.30 285.18,2136.88 C276.67,2123.38 260.00,2096.30 251.84,2082.72 C244.16,2068.87 229.04,2040.89 221.61,2026.77 C214.42,2012.39 200.37,1983.52 193.52,1969.04 C187.02,1954.53 174.30,1925.48 168.42,1910.80 C162.75,1895.95 151.70,1866.00 146.31,1850.92 C141.22,1835.66 131.40,1805.16 126.67,1789.92 C122.31,1774.69 114.11,1744.10 110.28,1728.73 C106.75,1713.16 100.00,1681.84 96.78,1666.09 C93.91,1650.33 88.51,1618.86 85.99,1603.17 C83.74,1587.52 80.23,1556.00 78.60,1540.19 C77.30,1524.22 75.04,1492.19 74.07,1476.14 C73.45,1460.20 72.55,1428.41 72.27,1412.57 C72.55,1396.73 73.45,1364.95 74.07,1349.00 C75.04,1332.95 77.30,1300.93 78.60,1284.96 C80.23,1269.14 83.74,1237.63 85.99,1221.98 C88.51,1206.28 93.91,1174.82 96.78,1159.06 C100.00,1143.30 106.75,1111.98 110.28,1096.42 C114.11,1081.05 122.31,1050.45 126.67,1035.22 C131.40,1019.98 141.22,989.48 146.31,974.23 C151.70,959.14 162.75,929.20 168.42,914.34 C174.30,899.66 187.02,870.62 193.52,856.11 C200.37,841.62 214.42,812.76 221.61,798.37 C229.04,784.25 244.16,756.28 251.84,742.42 C260.00,728.84 276.67,701.77 285.18,688.27 C294.04,674.85 312.02,648.25 321.13,635.07 C330.45,622.19 349.24,596.65 359.01,584.22 C369.05,571.89 389.45,547.34 399.82,535.13 C410.49,523.09 431.99,499.34 442.83,487.62 C453.83,476.23 476.23,453.83 487.62,442.83 C499.34,431.99 523.09,410.49 535.13,399.82 C547.34,389.45 571.89,369.05 584.22,359.01 C596.65,349.24 622.19,330.45 635.07,321.13 C648.25,312.02 674.85,294.04 688.27,285.18 C701.77,276.67 728.84,260.00 742.42,251.84 C756.28,244.16 784.25,229.04 798.37,221.61 C812.76,214.42 841.62,200.37 856.11,193.52 C870.62,187.02 899.66,174.30 914.34,168.42 C929.20,162.75 959.14,151.70 974.23,146.31 C989.48,141.22 1019.98,131.40 1035.22,126.67 C1050.45,122.31 1081.05,114.11 1096.42,110.28 C1111.98,106.75 1143.30,100.00 1159.06,96.78 C1174.82,93.91 1206.28,88.51 1221.98,85.99 C1237.63,83.74 1269.14,80.23 1284.96,78.60 C1300.93,77.30 1332.95,75.04 1349.00,74.07 C1364.95,73.45 1396.73,72.55 1412.57,72.27 Z" fill="none" stroke="rgb(0, 0, 0)" stroke-width="100.00" stroke-opacity="1.00" stroke-linejoin="round"/>
<path d="M312.08,706.29 Q1392.86,1251.60 2516.35,706.29" fill="none" stroke="rgb(0, 0, 0)" stroke-width="100.00" stroke-opacity="1.00" stroke-linejoin="round"/>
<path d="M2480.21,706.29 Q1399.43,1251.60 275.94,706.29" fill="none" stroke="rgb(0, 0, 0)" stroke-width="100.00" stroke-opacity="1.00" stroke-linejoin="round"/>
<path d="M617.59,341.65 Q1396.15,2312.68 2109.00,2542.63" fill="none" stroke="rgb(0, 0, 0)" stroke-width="100.00" stroke-opacity="1.00" stroke-linejoin="round"/>
<path d="M2174.70,341.65 Q1396.15,2312.68 683.29,2542.63" fill="none" stroke="rgb(0, 0, 0)" stroke-width="100.00" stroke-opacity="1.00" stroke-linejoin="round"/>
</g>
</svg>
